<?xml version="1.0" encoding="UTF-8" standalone="no"?>
<svg
   viewBox="0 0 128 128"
   version="1.1"
   id="svg199"
   xmlns="http://www.w3.org/2000/svg"
   xmlns:svg="http://www.w3.org/2000/svg">
  <defs
     id="defs203" />
  <g
     transform="matrix(1.25 0 0 -1.25 -538.6 808.93)"
     id="g197">
    <g
       transform="matrix(0,0.98793,-0.98793,0,1067.334,118.19201)"
       stroke="#000000"
       id="g195">
      <g
         transform="matrix(0.75498,-0.6159,0.6159,0.75498,-247.3,445.78)"
         id="g185">
        <path
           d="m 482.24,647.19 8.6337,-51.265 v -12.816 l -6.6103,-0.1885 c 0.32395,5.9637 -6.1505,10.727 -10.657,9.8007 0.0551,9.6122 0,35.245 0,44.857 -0.21343,6.5432 3.1432,9.5451 8.6337,9.6122 z"
           fill="#ffffff"
           fill-rule="evenodd"
           stroke-width="1.5183"
           id="path181" />
        <path
           d="m 490.86,582.71 0.009,-8.9643 c 1.4799,2.0329 6.2889,3.3954 9.486,3.3986 8.806,0.009 15.957,-7.1525 15.966,-15.959 0.009,-8.805 -7.1284,-15.982 -15.934,-15.99 -8.5137,-0.008 -15.503,6.6834 -15.965,15.084 l -0.025,-2e-5 -8.5e-4,0.875 -0.021,21.55 6.4857,0.006 z m 9.502,-12.991 c -4.711,-0.005 -8.5463,-3.8473 -8.5417,-8.5583 0.005,-4.711 3.8473,-8.5463 8.5583,-8.5417 4.711,0.005 8.5213,3.8493 8.5167,8.5583 -0.005,4.709 -3.8223,8.5463 -8.5333,8.5417 z"
           stroke-width="1.6"
           id="path183" />
      </g>
      <g
         transform="matrix(0.098349,-0.96936,0.96936,0.098349,-142.37,1009.4)"
         id="g191">
        <path
           d="m 482.23,647.19 -8.6337,-51.265 v -12.816 l 6.3186,-0.18689 c -0.18335,5.3097 5.3632,9.8729 10.854,8.8637 -0.0551,9.6122 0.0949,36.18 0.0949,45.792 0.21343,6.5432 -3.1432,9.5451 -8.6337,9.6122 z"
           fill="#ffffff"
           fill-rule="evenodd"
           stroke-width="1.5183"
           id="path187" />
        <path
           d="m 473.59,582.86 -0.009,-8.9643 c -1.4799,2.0329 -6.2889,3.3954 -9.486,3.3986 -8.806,0.009 -15.957,-7.1525 -15.966,-15.959 -0.009,-8.805 7.1284,-15.982 15.934,-15.99 8.5137,-0.008 15.503,6.6834 15.965,15.084 l 0.025,-2e-5 8.5e-4,0.875 -0.19744,21.467 -6.2673,0.0892 z m -9.502,-12.991 c 4.711,-0.005 8.5463,-3.8473 8.5417,-8.5583 -0.005,-4.711 -3.8473,-8.5463 -8.5583,-8.5417 -4.711,0.005 -8.5213,3.8493 -8.5167,8.5583 0.005,4.709 3.8223,8.5463 8.5333,8.5417 z"
           stroke-width="1.6"
           id="path189" />
      </g>
      <path
         d="m 483.14,597.79 c -1.5998,1.3051 -1.8382,3.661 -0.53306,5.2608 1.30514,1.5998 3.6603,1.8388 5.2601,0.53367 1.5998,-1.30513 1.8388,-3.6603 0.53367,-5.2601 -1.30513,-1.5998 -3.6609,-1.8395 -5.2607,-0.53443"
         stroke-width="0.97434"
         id="path193" />
    </g>
  </g>
</svg>
